General
Unique ID                                : 137102248755280487338560194465956379738 (0x6724EEC0F98E7D563D043A85E8E03C5A)
Complete name                            : Star.Wars.Episode.II.-.Attack.of.the.Clones.2002.1080p.UHD.BluRay.DD+7.1.DoVi.x265-SA89.mkv
Format                                   : Matroska
Format version                           : Version 4
File size                                : 11.8 GiB
Duration                                 : 2 h 22 min
Overall bit rate                         : 11.8 Mb/s
Encoded date                             : UTC 2021-11-02 09:54:02
Writing application                      : mkvmerge v61.0.0 ('So') 64-bit
Writing library                          : libebml v1.4.2 + libmatroska v1.6.4

Video
ID                                       : 1
Format                                   : HEVC
Format/Info                              : High Efficiency Video Coding
Format profile                           : Main 10@L5.1@High
HDR format                               : Dolby Vision, Version 1.0, dvhe.08.03, BL+RPU, HDR10 compatible / SMPTE ST 2086, HDR10 compatible
Codec ID                                 : V_MPEGH/ISO/HEVC
Duration                                 : 2 h 22 min
Bit rate                                 : 9 911 kb/s
Width                                    : 1 920 pixels
Height                                   : 804 pixels
Display aspect ratio                     : 2.40:1
Frame rate mode                          : Constant
Frame rate                               : 23.976 (24000/1001) FPS
Color space                              : YUV
Chroma subsampling                       : 4:2:0 (Type 2)
Bit depth                                : 10 bits
Bits/(Pixel*Frame)                       : 0.268
Stream size                              : 9.87 GiB (84%)
Writing library                          : x265 3.2+34-8e6db24c1517:[Windows][GCC 9.2.0][64 bit] 10bit
Encoding settings                        : cpuid=1111039 / frame-threads=4 / numa-pools=24 / wpp / no-pmode / no-pme / no-psnr / no-ssim / log-level=2 / input-csp=1 / input-res=1920x804 / interlace=0 / total-frames=205006 / level-idc=51 / high-tier=1 / uhd-bd=0 / ref=6 / no-allow-non-conformance / repeat-headers / annexb / aud / hrd / info / hash=0 / no-temporal-layers / no-open-gop / min-keyint=24 / keyint=240 / gop-lookahead=0 / bframes=16 / b-adapt=2 / b-pyramid / bframe-bias=0 / rc-lookahead=60 / lookahead-slices=0 / scenecut=40 / hist-scenecut=0 / radl=0 / no-splice / no-intra-refresh / ctu=32 / min-cu-size=8 / no-rect / no-amp / max-tu-size=32 / tu-inter-depth=4 / tu-intra-depth=4 / limit-tu=0 / rdoq-level=2 / dynamic-rd=0.00 / no-ssim-rd / signhide / no-tskip / nr-intra=0 / nr-inter=0 / no-constrained-intra / strong-intra-smoothing / max-merge=3 / limit-refs=1 / no-limit-modes / me=3 / subme=7 / merange=57 / temporal-mvp / no-frame-dup / no-hme / weightp / no-weightb / no-analyze-src-pics / deblock=-3:-3 / no-sao / no-sao-non-deblock / rd=3 / selective-sao=0 / early-skip / no-rskip / no-fast-intra / no-tskip-fast / no-cu-lossless / b-intra / no-splitrd-skip / rdpenalty=0 / psy-rd=2.00 / psy-rdoq=2.00 / no-rd-refine / no-lossless / cbqpoffs=0 / crqpoffs=0 / rc=crf / crf=12.0 / qcomp=0.60 / qpstep=4 / stats-write=0 / stats-read=0 / vbv-maxrate=160000 / vbv-bufsize=160000 / vbv-init=0.9 / crf-max=0.0 / crf-min=0.0 / ipratio=1.40 / pbratio=1.30 / aq-mode=3 / aq-strength=1.00 / no-cutree / zone-count=0 / no-strict-cbr / qg-size=16 / no-rc-grain / qpmax=69 / qpmin=0 / no-const-vbv / sar=1 / overscan=0 / videoformat=5 / range=0 / colorprim=9 / transfer=16 / colormatrix=9 / chromaloc=1 / chromaloc-top=2 / chromaloc-bottom=2 / display-window=0 / master-display=G(8500,39850)B(6550,2300)R(35400,14600)WP(15635,16450)L(10000000,0001) / cll=0,0 / min-luma=0 / max-luma=1023 / log2-max-poc-lsb=8 / vui-timing-info / vui-hrd-info / slices=1 / no-opt-qp-pps / no-opt-ref-list-length-pps / no-multi-pass-opt-rps / scenecut-bias=0.05 / hist-threshold=0.01 / no-opt-cu-delta-qp / no-aq-motion / hdr10 / hdr10-opt / no-dhdr10-opt / no-idr-recovery-sei / analysis-reuse-level=0 / analysis-save-reuse-level=0 / analysis-load-reuse-level=0 / scale-factor=0 / refine-intra=0 / refine-inter=0 / refine-mv=0 / refine-ctu-distortion=0 / no-limit-sao / ctu-info=0 / no-lowpass-dct / refine-analysis-type=0 / copy-pic=1 / max-ausize-factor=1.0 / no-dynamic-refine / no-single-sei / no-hevc-aq / no-svt / no-field / qp-adaptation-range=1.00 / no-scenecut-aware-qpconformance-window-offsets / right=0 / bottom=0
Default                                  : Yes
Forced                                   : No
Color range                              : Limited
Color primaries                          : BT.2020
Transfer characteristics                 : PQ
Matrix coefficients                      : BT.2020 non-constant
Mastering display color primaries        : BT.2020
Mastering display luminance              : min: 0.0001 cd/m2, max: 1000 cd/m2

Audio #1
ID                                       : 2
Format                                   : E-AC-3
Format/Info                              : Enhanced AC-3
Commercial name                          : Dolby Digital Plus
Format profile                           : Blu-ray Disc
Codec ID                                 : A_EAC3
Duration                                 : 2 h 22 min
Bit rate mode                            : Constant
Bit rate                                 : 1 536 kb/s
Channel(s)                               : 8 channels
Channel layout                           : L R C LFE Ls Rs Lb Rb
Sampling rate                            : 48.0 kHz
Frame rate                               : 31.250 FPS (1536 SPF)
Compression mode                         : Lossy
Stream size                              : 1.53 GiB (13%)
Language                                 : English
Service kind                             : Complete Main
Default                                  : Yes
Forced                                   : No

Audio #2
ID                                       : 3
Format                                   : AC-3
Format/Info                              : Audio Coding 3
Commercial name                          : Dolby Digital
Codec ID                                 : A_AC3
Duration                                 : 2 h 22 min
Bit rate mode                            : Constant
Bit rate                                 : 192 kb/s
Channel(s)                               : 2 channels
Channel layout                           : L R
Sampling rate                            : 48.0 kHz
Frame rate                               : 31.250 FPS (1536 SPF)
Compression mode                         : Lossy
Stream size                              : 196 MiB (2%)
Title                                    : Commentary: Ben Burtt, Rob Coleman, Pablo Helman, John Knoll, George Lucas, Rick McCallum & Ben Snow
Language                                 : English
Service kind                             : Complete Main
Default                                  : No
Forced                                   : No

Audio #3
ID                                       : 4
Format                                   : AC-3
Format/Info                              : Audio Coding 3
Commercial name                          : Dolby Digital
Codec ID                                 : A_AC3
Duration                                 : 2 h 22 min
Bit rate mode                            : Constant
Bit rate                                 : 192 kb/s
Channel(s)                               : 2 channels
Channel layout                           : L R
Sampling rate                            : 48.0 kHz
Frame rate                               : 31.250 FPS (1536 SPF)
Compression mode                         : Lossy
Stream size                              : 196 MiB (2%)
Title                                    : Commentary: Archival Interviews with cast and crew
Language                                 : English
Service kind                             : Complete Main
Default                                  : No
Forced                                   : No

Text #1
ID                                       : 5
Format                                   : UTF-8
Codec ID                                 : S_TEXT/UTF8
Codec ID/Info                            : UTF-8 Plain Text
Duration                                 : 2 h 11 min
Bit rate                                 : 42 b/s
Count of elements                        : 1208
Stream size                              : 41.3 KiB (0%)
Language                                 : English
Default                                  : No
Forced                                   : No

Text #2
ID                                       : 6
Format                                   : UTF-8
Codec ID                                 : S_TEXT/UTF8
Codec ID/Info                            : UTF-8 Plain Text
Duration                                 : 1 h 55 min
Bit rate                                 : 0 b/s
Count of elements                        : 16
Stream size                              : 562 Bytes (0%)
Title                                    : Forced
Language                                 : English
Default                                  : Yes
Forced                                   : Yes

Menu
00:00:00.000                             : :Opening Logos
00:00:24.107                             : :Attack of the Clones
00:01:51.194                             : :Return to Coruscant
00:04:22.762                             : :Chancellor's Meeting
00:07:00.670                             : :Old Friends
00:10:29.628                             : :Assassins
00:14:20.568                             : :Speeder Chase
00:21:35.961                             : :Into the Club
00:24:48.904                             : :New Assignments
00:29:46.534                             : :Travelling Incognito
00:31:34.142                             : :Dex's Diner
00:33:49.193                             : :Jedi Archives
00:34:51.172                             : :'Encouraged to Love'
00:36:05.788                             : :Yoda and the Younglings
00:38:26.595                             : :Return to Naboo
00:39:26.030                             : :Audience with the Queen
00:40:57.037                             : :Kamino Arrival
00:42:13.447                             : :Meeting Lama Su
00:44:02.681                             : :Stolen Kiss
00:45:51.081                             : :Inspecting the Clones
00:47:50.742                             : :Teasing a Senator
00:50:21.685                             : :Jango's Apartment
00:53:02.095                             : :Forbidden Love
00:56:45.485                             : :Obi-Wan's Report
00:58:57.367                             : :Nightmare
01:00:46.726                             : :Obi-Wan vs. Jango
01:03:41.859                             : :Back to Tatooine
01:06:25.022                             : :Asteroid Chase
01:11:19.441                             : :Lars' Homestead
01:14:02.020                             : :Anakin's Search
01:15:24.144                             : :Dooku's Separatist Plot
01:17:49.539                             : :Tusken Camp
01:21:41.021                             : :Out of Range
01:23:47.564                             : :'You're Not All-Powerful'
01:28:10.827                             : :Enemies Revealed
01:30:53.573                             : :Obi-Wan Captive
01:33:39.155                             : :Emergency Powers
01:35:28.514                             : :Droid Factory
01:42:45.534                             : :Love Pledge
01:45:14.683                             : :The Arena
01:49:54.295                             : :'This Party Is Over'
01:56:23.142                             : :Yoda's Cavalry
01:57:48.269                             : :Clone War
02:00:29.847                             : :War Room
02:04:49.648                             : :Duel with Dooku
02:07:42.613                             : :Master Yoda
02:11:24.334                             : :'Well Done, Lord Tyranus'
02:12:55.550                             : :'Begun, the Clone War Has'
02:14:49.915                             : :Secret Union
02:15:55.605                             : :End Credits
